<?xml version="1.0" encoding="utf-8"?>
<!-- Generator: Adobe Illustrator 21.1.0, SVG Export Plug-In . SVG Version: 6.00 Build 0)  -->
<svg version="1.1" id="Слой_1" xmlns="http://www.w3.org/2000/svg" xmlns:xlink="http://www.w3.org/1999/xlink" x="0px" y="0px"
	 viewBox="0 0 348 87" style="enable-background:new 0 0 348 87;" xml:space="preserve">
<style type="text/css">
	.st0{fill-rule:evenodd;clip-rule:evenodd;fill:#111313;}
</style>
<g>
	<path class="st0" d="M3.6,4.8c82.9-2.9,41.5-2.9,124.3,0C45.1,7.6,86.5,7.6,3.6,4.8L3.6,4.8z M212.4,4.8c88-2.9,44-2.9,132,0
		C256.4,7.6,300.4,7.6,212.4,4.8L212.4,4.8z"/>
	<path class="st0" d="M342.8,83.6c-172.1,2.9-86.1,2.9-258.2,0C256.6,80.8,170.6,80.8,342.8,83.6L342.8,83.6z"/>
	<path class="st0" d="M121,41.8c0-10.1-5.6-12.5-14.5-12.5c-5.2,0-9.8,1.8-13.9,5.5c-0.1-0.9-0.6-1.7-1.3-2.5
		c-0.9-1.2-2.2-1.7-4-1.7c-1.7,0-3.4,0.5-4.9,1.5c-1.5,1-2.9,2.1-4.1,3.2l0.9-4.7H68.4l-2.2,10.1c-1.9,0.8-4.7,1.8-6.8,1.3
		c0-6.6-2.2-12.1-9.7-12.1c-4.8,0-8.9,1.7-12.2,5c-1.3,1.2-2.4,2.6-3.4,4.2c-2.5,1.4-6.1,2.9-8.9,2.9l6.3-29.4
		c-1.2-0.1-2.2-0.2-3-0.2c-6.2,0-12.2,2-17.9,6.1C-1.6,27.1-5.8,51.8,12,52.8L8.3,70c0.3,0,0.7-0.1,0.9-0.1H10
		c4.2,0,8.7,1.8,13.5,5.4c5.8,4.4,8.7,6.6,8.7,6.6c4.4,3.4,8.3,5.2,11.5,5.2c2.1,0,3.8-1.1,5.2-3.2c1.4-2.1,2.3-5,2.7-8.6
		c-1.9,0.8-4,1.2-6.3,1.2c-3.8,0-8.3-1.4-13.4-4.2l-5.4-2.9c-2.3-1.3-4.5-2.1-6.5-2.5l3.5-16.2c2.7-0.4,5.1-2.1,7.3-4
		c-0.5,1.7-0.9,3.4-1.2,5.1c-0.3,1.9-0.5,3.7-0.5,5.5c0,1.8,0.3,3.5,0.9,5c1.7,4.3,5.4,6.4,11.2,6.4c4.7,0,8.7-2.1,12.1-6.2
		c3.4-4.2,3.8-5,5.4-11.8c2.2-0.3,4.2-1.5,6.2-3l-4.4,20.6h10.9l6-28.6c1-0.9,1.9-1.7,2.7-2.1c0.8-0.5,1.7-0.7,2.8-0.7
		c0.5,0,0.8,0.2,0.9,0.6c0.2,0.3,0.3,0.9,0.4,1.5c0.1,0.6,0.4,1.3,0.8,1.9c2.8,3.9,9-3.5,12.9-4.6c-2.2,2.5-4,5.8-5.2,9.5
		c-0.7,2-1.1,4-1.4,5.8c-0.3,1.9-0.5,3.7-0.5,5.5c0,1.8,0.3,3.5,0.9,5c1.7,4.3,5.4,6.4,11.2,6.4c4.7,0,8.7-2.1,12.1-6.2
		c3.4-4.1,3.8-5,5.4-11.7c4.6-0.7,9-3.3,11.5-7.1c-1.4,9,5.4,16.8,5.8,18c1.6,4.4,4.3,10.6,8.1,13.5l-3.8-13.5
		c3.5-1.7,7.5-8,12.8-11.8c-1.7-0.8-6-0.3-8.7-0.5c6-3.4,12.5-2.7,18.9-7.2c4.4-3.2,10.2-7.7,12.4-11.7l-5.6-0.6
		c2.8-0.7,5-0.6,6.7-1.5c-0.3,1.1-0.5,2.2-0.5,3.3c0,1.5,0.2,2.7,0.5,3.6c1.1,2.5,3.6,3.7,7.5,3.7c0-0.1-0.1-0.3-0.2-0.5
		c-0.5-1-0.8-2.5-0.8-4.6c0-5.6,1.8-10.1,5.6-13.3c3.7-3.4,8.4-5,14.2-5c7.3,0,11,4.7,11,14.2c0,3.9-0.3,7.7-1.1,11.6
		c-1.4,8.4-3.9,14.6-7.3,18.5c-1.8,2-3.8,3-6.1,3c-1.5,0-3-0.5-4.3-1.5l9.1-42.2l-11.2,1.5l-10.3,47.9h10.9l0.6-3c3.1,2.7,6,4,8.9,4
		c8.6,0,16.5-2.5,21.8-9.2c0.3,3.1,1.2,4.4,3,6c2.2,1.8,5,2.7,8.6,2.7c6.6,0,12.4-3,17.3-9.1c0.4,2.8,1.4,4.9,3,6.4
		c2.2,1.8,5,2.7,8.6,2.7c6.6,0,12.4-3,17.3-9c0.2,0.9,0.4,1.7,0.7,2.5c1.7,4.3,5.4,6.4,11.2,6.4c4.7,0,8.7-2.1,12.1-6.2
		c2.6-3.2,4.4-7.1,5.3-11.9c2.2-0.3,4.3-1.6,6.3-3.1l-4.4,20.8h10.8l6-28.6c1-0.9,1.9-1.7,2.7-2.1c0.8-0.5,1.7-0.7,2.8-0.7
		c0.5,0,0.9,0.2,1,0.6c0.1,0.3,0.3,0.9,0.4,1.5c0.1,0.6,0.3,1.3,0.8,1.9c0.4,0.6,1.3,0.9,2.7,0.9c1.4,0,2.6-0.5,3.6-1.7
		c0.9-1.1,1.4-2.6,1.4-4.4c0-1.1-0.4-2.1-1.3-3.3c-0.9-1.2-2.2-1.7-3.9-1.7c-1.8,0-3.4,0.5-4.9,1.5c-1.5,1-2.9,2.1-4.2,3.2l0.9-4.7
		h-10.9l-2.1,10.1c-1.9,0.8-4.8,1.8-6.9,1.3c0-6.6-2.2-12.1-9.7-12.1c-4.8,0-8.9,1.7-12.2,5c-2.9,2.7-5,6.4-6.5,10.9
		c-0.7,2-1.6,5.2-1.7,7.2c-4.6,5-17.9,14.4-17.9,3.9c0-2,0.1-3.8,0.3-5.4c0.9-5.5,2.4-10.1,4.7-13.7c1.6-2.5,3.1-3.9,4.6-3.9
		c1.4,0,2.2,1.1,2.2,3.1c0,1.3-0.3,2.8-0.9,4.5c0.9,0.5,1.9,0.9,2.8,0.9c1,0,1.9-0.5,2.7-1.3c0.8-0.9,1.2-2.3,1.2-4.2
		c0-4.6-3-6.8-9.1-6.8c-2.2,0-4.2,0.5-6.2,1.4c-3.8,1.7-6.9,4.7-9.1,8.7c-2.8,5.1-4.1,7.7-4.2,13.1c-3.4,3.6-11.9,12.2-16.6,7.9
		c-0.9-0.8-1.3-2.5-1.3-5.1c0-0.6,0-1.6,0.1-3c4.6-0.3,8.7-1.9,12.2-4.9c3.5-3,5.2-6.7,5.2-11c0-2.1-0.6-3.9-1.8-5.2
		c-1.3-1.3-3.6-1.9-7.1-1.9c-2.2,0-4.2,0.5-6.2,1.4c-3.9,1.7-6.9,4.6-9.1,8.7c-2.7,4.9-4,7.8-4.2,13c-2.4,2.9-3.7,4.4-7.4,5.8
		c3.1-4,3.4-6.1,5.1-12.5c1.1-4.3,1.7-8.5,1.7-12.7c0-4.2-0.7-7.8-1.9-10.9c-3.1-7.3-9.1-11-18.2-11c-5,0-9.7,0.9-14,2.8
		c-4,1.7-7.2,4-9.7,6.7c2-7,1-14.5-2-21.2c-1.1,0.5-7.9,8.5-7.9,10.3c-0.1,1.9,0.3,3.6,0.1,5.5l-2-4.9l-6.7,4.3
		c-1.7,1-1.3,0.4-1.9,1.9c-1.1,2.9-1.1,7.6-2.8,10.5L157,19c-3.9,1.5-12.1,6.1-15,8.5c-5.5,4.6-3.2,11.2-4.4,15.3
		c-0.7-0.9-1.1-2.3-1.6-3.6c-0.5-1.4-0.7-2.6-1.6-3.4c-2,2.8-3.6,3.5-6.9,4.8c-2.2,0.9-3.9,1.3-5.2,1.3C121.7,42,121.3,42,121,41.8
		L121,41.8z M102.6,49.2c1.2-5.4,3-9.5,5.2-12.5c1.2-1.5,2.4-2.3,3.5-2.3c1.2,0,2,0.3,2.4,0.9c0.4,0.7,0.7,1.7,0.8,3.4
		c-1.4,0.7-2.2,1.9-2.2,3.8s0.6,3,1.8,3.5c-0.6,4.4-1.7,8.2-3.3,11.2c-1.6,3-3.5,4.5-5.6,4.5c-1.2,0-2.1-0.4-2.6-1.3
		c-0.5-0.8-0.8-2.5-0.8-5.3C101.8,53.6,102,51.6,102.6,49.2L102.6,49.2z M50.9,42.7c0,1.9,0.7,3,2,3.4c-0.6,4.4-1.7,8.2-3.4,11.1
		c-1.7,3-3.4,4.6-5.1,4.6c-0.9,0-1.5-0.1-2-0.3s-0.9-0.6-1.4-1.2c-0.4-0.7-0.7-2.2-0.7-4.6c0-4,1.1-8.4,3.2-13.5
		c2.1-5.1,4.3-7.6,6.6-7.6c1.2,0,2,0.3,2.4,1c0.4,0.7,0.6,1.7,0.7,3.4C51.6,39.5,50.9,40.8,50.9,42.7L50.9,42.7z M138.4,51.1
		c9.7-21.6,19.9-8.8,36.5-34.3C158.7,48.8,151.5,29.3,138.4,51.1L138.4,51.1z M238.5,49.4c0.7-4,2-7.4,3.7-10.7
		c1.7-3.2,3.5-4.8,5.4-4.9c1.2,0,1.9,0.9,1.9,2.7c0,3.4-1.1,6.2-3.3,8.7C243.9,47.9,241.4,49.2,238.5,49.4L238.5,49.4z M295.7,55.6
		c0-4,1-8.4,3.2-13.5c2.1-5.1,4.3-7.6,6.6-7.6c1.2,0,2,0.3,2.4,1c0.4,0.7,0.7,1.7,0.7,3.4c-1.5,0.7-2.4,2-2.4,3.9c0,1.9,0.7,3,2,3.4
		c-0.6,4.4-1.7,8.2-3.4,11.1c-1.7,3-3.4,4.6-5.1,4.6c-0.9,0-1.5-0.1-2-0.3c-0.5-0.2-0.9-0.6-1.4-1.2C295.9,59.6,295.7,58,295.7,55.6
		L295.7,55.6z M19.6,17.8l-5.3,24.5c-1.9-0.7-3.3-1.7-4.4-3.5c-2-3.7-0.3-11.5,1.9-14.8C13.6,21.2,16.2,19.2,19.6,17.8L19.6,17.8z"
		/>
</g>
</svg>
